<?xml version="1.0" standalone="no"?>
<!DOCTYPE svg PUBLIC "-//W3C//DTD SVG 20010904//EN" "http://www.w3.org/TR/2001/REC-SVG-20010904/DTD/svg10.dtd">
<!-- Created using Krita: https://krita.org -->
<svg xmlns="http://www.w3.org/2000/svg" 
    xmlns:xlink="http://www.w3.org/1999/xlink"
    xmlns:krita="http://krita.org/namespaces/svg/krita"
    xmlns:sodipodi="http://sodipodi.sourceforge.net/DTD/sodipodi-0.dtd"
    width="720pt"
    height="720pt"
    viewBox="0 0 720 720">
<defs/>
<path id="shape0" transform="translate(300.345108023948, 229.337007559644)" fill="none" stroke="#000000" stroke-width="9.6" stroke-linecap="square" stroke-linejoin="bevel" d="M46.677 0C49.9672 0 77.5638 36.0852 76.2473 38.3917C53.3496 78.5069 -51.1938 162.034 31.0672 216.875C68.4255 241.781 99.164 181.931 85.1676 151.63C75.1239 129.886 52.5207 128.653 31.454 128.653C26.7705 128.653 22.2503 129.331 17.4934 129.331C15.0695 129.331 7.79833 129.426 10.2223 129.426C28.8319 129.426 52.5574 131.033 70.9161 127.681C77.4458 126.489 84.2569 126.31 90.8855 125.84C93.0398 125.688 100.958 124.838 100.196 125.454" sodipodi:nodetypes="cccccccccc"/>
</svg>
