<?xml version="1.0" standalone="no"?>
<!DOCTYPE svg PUBLIC "-//W3C//DTD SVG 20010904//EN" "http://www.w3.org/TR/2001/REC-SVG-20010904/DTD/svg10.dtd">
<!-- Created using Krita: https://krita.org -->
<svg xmlns="http://www.w3.org/2000/svg" 
    xmlns:xlink="http://www.w3.org/1999/xlink"
    xmlns:krita="http://krita.org/namespaces/svg/krita"
    xmlns:sodipodi="http://sodipodi.sourceforge.net/DTD/sodipodi-0.dtd"
    width="720pt"
    height="720pt"
    viewBox="0 0 720 720">
<defs/>
<path id="shape0" transform="translate(266.906618405955, 223.714984514181)" fill="none" stroke="#000000" stroke-width="9.6" stroke-linecap="square" stroke-linejoin="bevel" d="M67.7173 0C67.7173 9.17296 56.237 20.5371 51.9127 28.1131C24.946 75.3571 -11.7263 136.211 3.62924 191.377C7.39191 204.894 6.94631 216.937 18.3664 226.473C51.0083 253.731 103.856 196.907 90.7901 163.261C81.7683 140.028 63.1641 129.977 38.6297 128.458C31.3042 128.005 23.9163 130.889 16.7203 131.558C12.4381 131.956 -0.0106441 133.895 3.82414 131.948C20.6479 123.407 57.7769 127.873 76.6346 127.873C84.4469 127.873 92.355 127.391 100.196 127.391C103.881 127.391 114.934 127.681 111.248 127.681" sodipodi:nodetypes="ccccccccccc"/>
</svg>
