<?xml version="1.0" standalone="no"?>
<!DOCTYPE svg PUBLIC "-//W3C//DTD SVG 20010904//EN" "http://www.w3.org/TR/2001/REC-SVG-20010904/DTD/svg10.dtd">
<!-- Created using Krita: https://krita.org -->
<svg xmlns="http://www.w3.org/2000/svg" 
    xmlns:xlink="http://www.w3.org/1999/xlink"
    xmlns:krita="http://krita.org/namespaces/svg/krita"
    xmlns:sodipodi="http://sodipodi.sourceforge.net/DTD/sodipodi-0.dtd"
    width="720pt"
    height="720pt"
    viewBox="0 0 720 720">
<defs/>
<path id="shape0" transform="translate(274.285614137871, 223.871250527207)" fill="none" stroke="#000000" stroke-width="9.6" stroke-linecap="square" stroke-linejoin="bevel" d="M85.8457 1.93661C85.8457 2.72319 81.6266 1.20789 80.6105 0.869176C69.5628 -2.81338 54.0426 5.72043 50.3595 16.7698C41.891 42.1752 68.9252 31.5956 80.0288 37.3209C84.6824 39.7204 72.5449 44.6546 68.5869 48.0822C57.5248 57.6617 49.0637 70.0461 38.9206 80.561C14.6569 105.714 -8.32458 152.815 2.95163 187.883C11.7094 215.12 40.119 237.152 70.1371 228.796C85.1098 224.629 90.5483 213.017 102.229 205.238C106.974 202.078 115.858 187.051 111.827 191.082" sodipodi:nodetypes="cccccccccc"/>
</svg>
