<?xml version="1.0" standalone="no"?>
<!DOCTYPE svg PUBLIC "-//W3C//DTD SVG 20010904//EN" "http://www.w3.org/TR/2001/REC-SVG-20010904/DTD/svg10.dtd">
<!-- Created using Krita: https://krita.org -->
<svg xmlns="http://www.w3.org/2000/svg" 
    xmlns:xlink="http://www.w3.org/1999/xlink"
    xmlns:krita="http://krita.org/namespaces/svg/krita"
    xmlns:sodipodi="http://sodipodi.sourceforge.net/DTD/sodipodi-0.dtd"
    width="720pt"
    height="720pt"
    viewBox="0 0 720 720">
<defs/>
<path id="shape0" transform="translate(250.912079500483, 239.336005459248)" fill="none" stroke="#000000" stroke-width="9.6" stroke-linecap="square" stroke-linejoin="bevel" d="M0.427942 3.67076C-2.07322 3.67076 7.14467 3.98787 8.57163 4.15651C15.3331 4.9556 22.1428 4.15651 28.9308 4.15651C42.1158 4.15651 64.1741 -1.8324 75.9549 0.567407C76.6452 0.708006 76.1468 17.3765 76.1468 19.5713C76.1468 66.3059 73.3771 113.332 75.5652 159.759C76.1721 172.637 77.4092 185.105 77.4092 198.055C77.4092 202.551 77.1071 207.076 76.9234 211.53C76.8315 213.759 75.7187 220.208 76.7285 218.219C88.2528 195.52 163.15 189.054 161.563 217.056" sodipodi:nodetypes="cccccccccc"/>
</svg>
