<?xml version="1.0" standalone="no"?>
<!DOCTYPE svg PUBLIC "-//W3C//DTD SVG 20010904//EN" "http://www.w3.org/TR/2001/REC-SVG-20010904/DTD/svg10.dtd">
<!-- Created using Krita: https://krita.org -->
<svg xmlns="http://www.w3.org/2000/svg" 
    xmlns:xlink="http://www.w3.org/1999/xlink"
    xmlns:krita="http://krita.org/namespaces/svg/krita"
    xmlns:sodipodi="http://sodipodi.sourceforge.net/DTD/sodipodi-0.dtd"
    width="720pt"
    height="720pt"
    viewBox="0 0 720 720">
<defs/>
<path id="shape0" transform="translate(270.899217920925, 248.622338177274)" fill="none" stroke="#000000" stroke-width="9.6" stroke-linecap="square" stroke-linejoin="bevel" d="M0.704074 2.52812C-2.34012 -0.516072 5.26792 10.0476 8.65286 12.7077C16.124 18.5791 23.2261 24.9181 33.0869 26.4734C60.8182 30.8473 70.4529 10.0418 90.2876 0.201351C93.0412 -1.16476 86.163 4.77745 84.3748 7.2776C81.6987 11.0191 77.8142 13.2066 75.0677 16.6836C66.3016 27.7813 57.406 39.3068 51.6051 52.3587C32.7852 94.7036 16.3192 143.6 35.4137 188.088C45.9249 212.578 79.4575 206.499 94.5544 189.641C96.373 187.61 112.322 170.832 111.618 170.832" sodipodi:nodetypes="cccccccccc"/>
</svg>
