<?xml version="1.0" standalone="no"?>
<!DOCTYPE svg PUBLIC "-//W3C//DTD SVG 20010904//EN" "http://www.w3.org/TR/2001/REC-SVG-20010904/DTD/svg10.dtd">
<!-- Created using Krita: https://krita.org -->
<svg xmlns="http://www.w3.org/2000/svg" 
    xmlns:xlink="http://www.w3.org/1999/xlink"
    xmlns:krita="http://krita.org/namespaces/svg/krita"
    xmlns:sodipodi="http://sodipodi.sourceforge.net/DTD/sodipodi-0.dtd"
    width="720pt"
    height="720pt"
    viewBox="0 0 720 720">
<defs/>
<path id="shape0" transform="translate(81.8986729686461, 240.544961793265)" fill="none" stroke="#000000" stroke-width="9.6" stroke-linecap="square" stroke-linejoin="bevel" d="M3.48069 60.1375C-6.28037 63.5574 7.43938 55.7884 8.85669 54.9826C28.6078 43.7541 48.9927 29.8324 70.8222 23.0619C130.297 4.6157 191.746 -7.42456 253.606 5.21806C285.53 11.7426 319.917 24.6635 348.676 39.3197C356.845 43.4826 386.468 63.9604 384.611 63.3098"/><path id="shape1" transform="translate(401.431566919907, 309.930066509192)" fill="none" stroke="#000000" stroke-width="9.6" stroke-linecap="square" stroke-linejoin="bevel" d="M0 3.44141C1.99695 2.97498 50.6341 41.6776 76.1128 38.9309C94.0071 37.0018 107.827 27.0665 120.819 15.5356C124.59 12.1881 128.249 8.98966 131.853 5.62233C133.298 4.27283 138.76 -0.645604 138.078 0.070901"/>
</svg>
