<?xml version="1.0" encoding="UTF-8" standalone="no"?>
<svg version="1.1" xmlns="http://www.w3.org/2000/svg" xmlns:xlink="http://www.w3.org/1999/xlink" width="488.96" height="287.04">
	<g id="Arrow_by_Adam_Stanislav" transform="matrix(1,0,0,1,-152.636,-417.741)">
		<title>Hand-drawn Arrow by Adam Stanislav</title>
		<path id="Top" fill="black" d="M 200.295,417.801 C 197.125,458.168 357.236,535.613 401.904,548.441 C 433.395,557.485 488.236,564.996 518.963,559.409 C 520.304,559.051 512.552,564.853 510.164,566.66 C 502.703,572.304 498.057,575.651 491.165,576.007 C 466.369,577.288 434.047,573.004 405.748,568.344 C 341.629,557.785 275.687,519.352 220.088,480.401 C 205.623,470.267 169.425,439.288 175.987,430.187 C 179.639,425.121 194.12,420.941 199.817,418.045 C 199.976,417.964 200.136,417.883 200.295,417.801 Z "/>
		<path id="Bottom" fill="black" d="M 492.948,624.324 C 477.071,624.324 461.491,626.412 447.295,626.455 C 435.855,626.489 416.549,624.549 403.095,624.759 C 327.469,625.935 255.568,641.272 190.288,677.087 C 173.627,686.228 158.141,690.863 152.757,704.392 C 152.231,705.744 156.679,703.211 158.016,702.583 C 161.811,700.8 165.604,699.021 169.4,697.237 C 179.227,692.619 184.549,685.388 195.212,680.065 C 224.853,665.268 255.087,654.599 289.828,648.425 C 317.971,643.424 356.171,640.072 385.161,639.967 C 401.497,639.907 421.42,642.021 433.28,641.913 C 447.725,641.781 460.731,639.676 475.092,639.931 C 479.859,640.015 484.177,640.407 488.56,641.372 C 490.665,641.836 496.067,644.921 494.764,643.203 C 494.695,643.095 494.633,642.996 494.576,642.896 C 493.285,640.483 510.416,634.687 513.383,633.451 C 513.971,633.205 518.743,632.036 518.781,630.777 C 518.645,624.953 497.083,624.364 492.948,624.324 Z "/>
		<path id="Arrowhead" fill="black" d="M 472.251,472.795 C 464.052,477.819 455.851,482.835 447.659,487.864 C 494.864,529.257 566.308,581.183 608.748,621.216 C 585.376,627.224 561.116,636.417 538.681,644.949 C 530,648.251 519.885,650.779 511.784,655.296 C 504.853,659.161 498.492,665.739 492.24,670.645 C 533.416,654.351 582.512,631.404 615.019,632.397 C 620.693,632.571 630.837,623.917 635.707,620.761 C 636.537,620.223 641.541,617.861 641.643,616.621 C 641.029,611.88 489.207,492.985 472.251,472.795 Z "/>
	</g>
</svg>