<?xml version="1.0" standalone="no"?>
<!DOCTYPE svg PUBLIC "-//W3C//DTD SVG 20010904//EN" "http://www.w3.org/TR/2001/REC-SVG-20010904/DTD/svg10.dtd">
<!-- Created using Krita: https://krita.org -->
<svg xmlns="http://www.w3.org/2000/svg" 
    xmlns:xlink="http://www.w3.org/1999/xlink"
    xmlns:krita="http://krita.org/namespaces/svg/krita"
    xmlns:sodipodi="http://sodipodi.sourceforge.net/DTD/sodipodi-0.dtd"
    width="720pt"
    height="720pt"
    viewBox="0 0 720 720">
<defs/>
<path id="shape0" transform="translate(332.908311309201, 307.375117299397)" fill="none" stroke="#000000" stroke-width="9.6" stroke-linecap="square" stroke-linejoin="bevel" d="M34.4853 0.00456537C34.3537 -0.250635 27.7898 10.2715 26.7284 11.9293C18.9571 24.0662 10.2769 35.4211 4.52512 48.5788C4.21656 49.2847 1.8127 55.3643 0.843072 55.3643C-2.45888 55.3643 4.83975 50.068 7.24168 47.8023C11.5593 43.7295 21.9683 35.8159 28.6683 38.786C43.6162 45.4124 40.6912 72.9428 40.0113 85.6122C39.2986 98.8954 33.3609 115.173 38.2663 128.271C40.3518 133.839 39.5105 143.53 38.3622 149.308C38.255 149.847 38.1673 150.079 38.1673 149.212" sodipodi:nodetypes="cccccccccc"/>
</svg>
