<?xml version="1.0" standalone="no"?>
<!DOCTYPE svg PUBLIC "-//W3C//DTD SVG 20010904//EN" "http://www.w3.org/TR/2001/REC-SVG-20010904/DTD/svg10.dtd">
<!-- Created using Krita: https://krita.org -->
<svg xmlns="http://www.w3.org/2000/svg" 
    xmlns:xlink="http://www.w3.org/1999/xlink"
    xmlns:krita="http://krita.org/namespaces/svg/krita"
    xmlns:sodipodi="http://sodipodi.sourceforge.net/DTD/sodipodi-0.dtd"
    width="720pt"
    height="720pt"
    viewBox="0 0 720 720">
<defs/>
<path id="shape0" transform="translate(91.6162693223322, 245.154238495736)" fill="none" stroke="#000000" stroke-width="9.6" stroke-linecap="square" stroke-linejoin="bevel" d="M39.4944 0.0382407C44.6261 -1.14164 84.6349 25.3626 83.6918 26.8055C79.0551 33.8994 58.4639 40.3524 51.0855 46.2221C19.3589 71.4615 -10.7598 132.758 3.74788 174.373C12.1222 198.395 39.2519 215.949 65.5761 204.608C82.5547 197.294 95.4553 188.58 105.426 172.848C105.561 172.636 107.109 170.716 107.118 170.768C113.561 207.903 110.258 257.002 110.258 296.147C110.258 309.877 110.258 323.607 110.258 337.338C110.258 342.053 110.258 346.768 110.258 351.484C110.258 354.072 110.258 361.837 110.258 359.249C110.258 355.301 118.435 346.828 120.161 342.468C131.145 314.717 140.295 285.684 154.937 259.531C162.334 246.319 177.582 230.74 181.748 216.397C183.371 210.808 180.707 203.611 183.678 198.505C187.722 191.554 203.967 170.932 203.967 164.387" sodipodi:nodetypes="cccccccccccccccc"/><path id="shape1" transform="translate(262.010627229489, 363.289462671703)" fill="none" stroke="#000000" stroke-width="9.6" stroke-linecap="square" stroke-linejoin="bevel" d="M0 18.6521C33.9363 18.6521 68.8481 25.8688 101.681 12.8264C104.641 11.6506 115.143 8.05119 112.791 2.7034C110.138 -3.32854 39.0357 -2.27532 98.5412 38.0687C151.684 74.0988 224.399 45.9234 276.779 25.8656C281.671 23.992 301.416 16.1171 301.416 10.4687" sodipodi:nodetypes="cccccc"/>
</svg>
