<?xml version="1.0" standalone="no"?>
<!DOCTYPE svg PUBLIC "-//W3C//DTD SVG 20010904//EN" "http://www.w3.org/TR/2001/REC-SVG-20010904/DTD/svg10.dtd">
<!-- Created using Krita: https://krita.org -->
<svg xmlns="http://www.w3.org/2000/svg" 
    xmlns:xlink="http://www.w3.org/1999/xlink"
    xmlns:krita="http://krita.org/namespaces/svg/krita"
    xmlns:sodipodi="http://sodipodi.sourceforge.net/DTD/sodipodi-0.dtd"
    width="720pt"
    height="720pt"
    viewBox="0 0 720 720">
<defs/>
<path id="shape0" transform="translate(250.417216137264, 240.461904554127)" fill="none" stroke="#000000" stroke-width="9.6" stroke-linecap="square" stroke-linejoin="bevel" d="M64.6838 0C68.9854 4.52123 90.432 25.0176 90.432 31.9207C90.432 39.1263 54.2684 53.4816 48.2729 59.083C13.8568 91.2375 -23.8344 155.878 19.4123 196.283C42.5908 217.938 79.6265 226.118 102.033 196.679C104.458 193.493 110.156 180.054 113.068 179.034C137.304 177.024 151.33 176.107 167.303 178.338C183.617 176.274 191.882 207.855 198.983 221.538C200.833 225.103 206.135 213.203 208.583 210.018C220.554 194.439 243.266 170.173 238.131 174.672"/>
</svg>
