<?xml version="1.0" standalone="no"?>
<!DOCTYPE svg PUBLIC "-//W3C//DTD SVG 20010904//EN" "http://www.w3.org/TR/2001/REC-SVG-20010904/DTD/svg10.dtd">
<!-- Created using Krita: https://krita.org -->
<svg xmlns="http://www.w3.org/2000/svg" 
    xmlns:xlink="http://www.w3.org/1999/xlink"
    xmlns:krita="http://krita.org/namespaces/svg/krita"
    xmlns:sodipodi="http://sodipodi.sourceforge.net/DTD/sodipodi-0.dtd"
    width="720pt"
    height="720pt"s
    viewBox="0 0 720 720">
<defs/>
<path id="shape0" transform="translate(270.701981413852, 359.191253004649)" fill="none" stroke="#000000" stroke-width="9.6" stroke-linecap="square" stroke-linejoin="bevel" d="M81.3957 11.2806C82.4466 10.1761 80.3027 8.18011 77.7174 5.7292C44.1681 -26.0763 34.4705 84.5023 40.9342 93.5607C55.7522 114.327 78.1353 66.4658 44.3296 81.8631C39.7388 83.954 35.6988 86.0181 32.1629 89.7937C21.8573 100.797 13.8229 113.07 7.82939 126.869C-3.21627 152.3 -5.83914 258.426 21.9768 273.586C88.2623 309.711 135.297 144.911 116.764 92.9659C116.678 92.7256 114.802 90.7586 115.349 89.9919C120.291 83.0665 177.629 82.7211 177.881 83.2509"/>
</svg>
