<?xml version="1.0" standalone="no"?>
<!DOCTYPE svg PUBLIC "-//W3C//DTD SVG 20010904//EN" "http://www.w3.org/TR/2001/REC-SVG-20010904/DTD/svg10.dtd">
<!-- Created using Krita: https://krita.org -->
<svg xmlns="http://www.w3.org/2000/svg" 
    xmlns:xlink="http://www.w3.org/1999/xlink"
    xmlns:krita="http://krita.org/namespaces/svg/krita"
    xmlns:sodipodi="http://sodipodi.sourceforge.net/DTD/sodipodi-0.dtd"
    width="720pt"
    height="720pt"
    viewBox="0 0 720 720">
<defs/>
<path id="shape0" transform="translate(229.133480038604, 394.572731433326)" fill="none" stroke="#000000" stroke-width="9.6" stroke-linecap="square" stroke-linejoin="bevel" d="M9.19146 0C10.7602 1.64882 8.76014 10.0227 8.56238 11.7549C7.38685 22.0513 6.28668 31.7376 4.1588 41.8767C4.05083 42.3911 1.79866 60.2436 1.01339 60.2436C-2.96821 60.2436 5.88556 53.9342 8.56238 50.9867C16.1198 42.665 26.2513 34.5927 35.8226 28.6525C61.6423 12.6279 90.8604 6.47089 120.958 8.2284C149.128 9.87332 169.536 18.6337 191.206 35.2646C199.91 41.9443 219.295 58.6604 219.095 57.8927"/><path id="shape1" transform="translate(309.643607707476, 281.342838471962)" fill="none" stroke="#000000" stroke-width="9.6" stroke-linecap="square" stroke-linejoin="bevel" d="M115.519 0.236325C118.697 -1.24822 111.955 4.69664 110.486 5.96682C94.3643 19.9076 81.9426 37.2392 67.0795 52.3985C35.6968 84.4066 12.9809 126.694 2.91308 170.682C-18.5589 264.496 84.8496 280.253 110.906 230.044"/>
</svg>
