<?xml version="1.0" standalone="no"?>
<!DOCTYPE svg PUBLIC "-//W3C//DTD SVG 20010904//EN" "http://www.w3.org/TR/2001/REC-SVG-20010904/DTD/svg10.dtd">
<!-- Created using Krita: https://krita.org -->
<svg xmlns="http://www.w3.org/2000/svg" 
    xmlns:xlink="http://www.w3.org/1999/xlink"
    xmlns:krita="http://krita.org/namespaces/svg/krita"
    xmlns:sodipodi="http://sodipodi.sourceforge.net/DTD/sodipodi-0.dtd"
    width="720pt"
    height="720pt"
    viewBox="0 0 720 720">
<defs/>
<path id="shape0" transform="translate(302.34557276665, 393.74325695881)" fill="none" stroke="#000000" stroke-width="9.6" stroke-linecap="square" stroke-linejoin="bevel" d="M4.5184 0C4.5184 5.32581 -0.617797 59.9434 0.0619788 62.0075C0.593253 63.6206 3.45909 61.9502 5.15503 61.8588C22.5848 60.9193 39.6881 58.1582 57.1466 57.5465C63.1248 57.337 69.0127 56.7365 74.9723 56.3569C76.608 56.2527 81.1954 56.7026 79.8531 55.7621C74.9906 52.3549 47.3232 65.7736 50.3559 68.2528C51.0503 68.8205 51.8739 69.2193 52.6902 69.5911C61.3404 73.531 74.7684 66.6459 82.8241 73.9034C100.172 89.5321 62.3991 95.155 53.539 93.0855"/><path id="shape1" transform="translate(338.593700915487, 505.416156315034)" fill="none" stroke="#000000" stroke-width="9.6" stroke-linecap="square" stroke-linejoin="bevel" d="M0.314058 12.9368C-2.87625 12.9368 19.0191 5.43805 30.6602 0"/><path id="shape2" transform="translate(346.573230175804, 518.352963564024)" fill="none" stroke="#000000" stroke-width="9.6" stroke-linecap="square" stroke-linejoin="bevel" d="M0.186317 14.5725C-1.13302 14.5725 4.97636 12.4968 5.27937 12.342C13.1423 8.32453 20.6181 3.73919 28.6225 0"/>
</svg>
