<?xml version="1.0" standalone="no"?>
<!DOCTYPE svg PUBLIC "-//W3C//DTD SVG 20010904//EN" "http://www.w3.org/TR/2001/REC-SVG-20010904/DTD/svg10.dtd">
<!-- Created using Krita: https://krita.org -->
<svg xmlns="http://www.w3.org/2000/svg" 
    xmlns:xlink="http://www.w3.org/1999/xlink"
    xmlns:krita="http://krita.org/namespaces/svg/krita"
    xmlns:sodipodi="http://sodipodi.sourceforge.net/DTD/sodipodi-0.dtd"
    width="720pt"
    height="720pt"
    viewBox="0 0 720 720">
<defs/>
<path id="shape0" transform="translate(280.043161098041, 360.51638027876)" fill="none" stroke="#000000" stroke-width="9.6" stroke-linecap="square" stroke-linejoin="bevel" d="M6.65166 0C2.31903 4.5539 6.65166 24.5075 6.65166 31.2973C6.65166 38.9899 -1.82735 51.1781 0.360833 58.3335C1.13773 60.8739 5.67715 58.6353 8.32921 58.4804C26.314 57.4302 44.2306 57.2706 62.2206 56.5703C62.6002 56.5555 64.565 55.9574 64.1079 56.5703C52.9968 71.4646 37.7481 82.4764 28.0405 98.4469C6.31602 134.187 -27.3587 241.34 41.4609 249.056C95.1678 255.077 120.344 161.217 128.694 121.516C132.702 102.456 136.061 83.8738 134.355 64.3578C134.18 62.3465 133.726 58.3335 133.726 58.3335C133.726 58.3335 144.513 78.6575 149.453 89.043C149.958 90.1029 154.183 102.414 155.535 102.414C155.716 102.414 175.968 72.5138 178.391 69.2067C180.121 66.8458 187.602 55.9028 187.408 56.7172"/>
</svg>
