<?xml version="1.0" standalone="no"?>
<!DOCTYPE svg PUBLIC "-//W3C//DTD SVG 20010904//EN" "http://www.w3.org/TR/2001/REC-SVG-20010904/DTD/svg10.dtd">
<!-- Created using Krita: https://krita.org -->
<svg xmlns="http://www.w3.org/2000/svg" 
    xmlns:xlink="http://www.w3.org/1999/xlink"
    xmlns:krita="http://krita.org/namespaces/svg/krita"
    xmlns:sodipodi="http://sodipodi.sourceforge.net/DTD/sodipodi-0.dtd"
    width="720pt"
    height="720pt"
    viewBox="0 0 720 720">
<defs/>
<path id="shape0" transform="translate(273.43860430953, 411.79548156956)" fill="none" stroke="#000000" stroke-width="9.6" stroke-linecap="square" stroke-linejoin="bevel" d="M30.4853 0.856124C30.4853 9.27849 5.79568 37.5315 0.520968 42.8062C-2.22368 45.5508 6.60996 37.9542 9.93833 35.9572C16.521 32.0076 21.7878 25.7518 28.773 22.2592C51.967 10.6623 66.7273 0 94.6946 0C123.237 0 139.228 3.4318 161.472 14.5541C169.094 18.3649 174.609 27.985 177.739 34.2449C178.916 36.5993 182.019 44.3597 182.019 41.0939" sodipodi:nodetypes="cccccccc"/><path id="shape1" transform="translate(306.069653248707, 363.85255648038)" fill="none" stroke="#000000" stroke-width="9.6" stroke-linecap="square" stroke-linejoin="bevel" d="M98.8768 0C104.078 0 93.215 6.25542 90.3156 7.70511C79.6074 13.0592 72.1072 24.2012 63.7758 32.5327C44.696 51.6125 -13.7955 107.687 2.99099 141.26C14.3362 163.951 82.9019 160.969 72.337 129.275C68.6262 118.142 43.8427 137.594 52.6462 146.397C56.9695 150.72 114.319 145.541 123.704 145.541" sodipodi:nodetypes="ccccccc"/>
</svg>
