<?xml version="1.0" standalone="no"?>
<!DOCTYPE svg PUBLIC "-//W3C//DTD SVG 20010904//EN" "http://www.w3.org/TR/2001/REC-SVG-20010904/DTD/svg10.dtd">
<!-- Created using Krita: https://krita.org -->
<svg xmlns="http://www.w3.org/2000/svg" 
    xmlns:xlink="http://www.w3.org/1999/xlink"
    xmlns:krita="http://krita.org/namespaces/svg/krita"
    xmlns:sodipodi="http://sodipodi.sourceforge.net/DTD/sodipodi-0.dtd"
    width="720pt"
    height="720pt"
    viewBox="0 0 720 720">
<defs/>
<path id="shape0" transform="translate(290.356956340719, 295.924134291635)" fill="none" stroke="#000000" stroke-width="9.6" stroke-linecap="square" stroke-linejoin="bevel" d="M30.4346 0C26.8504 7.53451 -3.53059 44.0216 1.57398 41.0409C7.56007 37.5455 17.3801 34.1679 24.4927 33.3086C40.2908 31.3999 41.9878 49.1157 43.1672 60.2726C45.638 83.6455 39.1753 233.912 14.5896 232.763C-17.0574 231.285 11.4554 153.867 19.3997 141.561C24.0708 134.326 29.2394 127.215 34.6788 120.545C35.5498 119.477 42.361 109.978 40.3378 112.813"/><path id="shape1" transform="translate(391.245461961938, 254.368437967157)" fill="none" stroke="#000000" stroke-width="9.6" stroke-linecap="square" stroke-linejoin="bevel" d="M0 14.7899C3.839 1.67171 15.981 -3.53635 26.3141 2.49744C38.1857 9.42958 34.9682 63.2902 31.9731 77.2434"/>
</svg>
