<?xml version="1.0" standalone="no"?>
<!DOCTYPE svg PUBLIC "-//W3C//DTD SVG 20010904//EN" "http://www.w3.org/TR/2001/REC-SVG-20010904/DTD/svg10.dtd">
<!-- Created using Krita: https://krita.org -->
<svg xmlns="http://www.w3.org/2000/svg" 
    xmlns:xlink="http://www.w3.org/1999/xlink"
    xmlns:krita="http://krita.org/namespaces/svg/krita"
    xmlns:sodipodi="http://sodipodi.sourceforge.net/DTD/sodipodi-0.dtd"
    width="720pt"
    height="720pt"
    viewBox="0 0 720 720">
<defs/>
<path id="shape0" transform="translate(247.150987080995, 288.317393335019)" fill="none" stroke="#000000" stroke-width="9.6" stroke-linecap="square" stroke-linejoin="bevel" d="M64.371 0.00900381C65.0786 -0.194216 59.0168 3.09635 56.8833 4.4468C51.0367 8.14745 45.6868 13.6934 41.1854 18.8705C27.7478 34.3253 2.23771 53.4048 0.369078 76.01C-2.00832 104.77 6.1997 174.23 51.5726 163.111C62.1489 160.519 67.5371 151.266 76.2063 146.329" sodipodi:nodetypes="cccccc"/><path id="shape1" transform="translate(294.616899524376, 390.06558373895)" fill="none" stroke="#000000" stroke-width="9.6" stroke-linecap="square" stroke-linejoin="bevel" d="M0 18.3656C0.584467 20.0541 11.1512 8.9623 13.5241 7.82792C31.8949 -0.954431 74.1628 -6.60506 85.9802 14.901C95.241 31.7542 85.9923 74.7945 75.8372 89.377C72.8659 93.6437 12.9855 149.257 5.55477 151.372" sodipodi:nodetypes="ccccc"/><path id="shape2" transform="translate(374.029989423181, 416.059378715814)" fill="none" stroke="#000000" stroke-width="9.6" stroke-linecap="square" stroke-linejoin="bevel" d="M35.7891 0C34.7062 17.8818 39.6894 47.8311 31.4415 63.9384C23.0326 80.3604 10.7748 94.3536 1.01237 109.845C0.928667 109.978 0.424523 111.329 0.286672 111.092C-3.90071 103.88 39.1701 89.1713 39.1701 89.3178" sodipodi:nodetypes="ccccc"/>
</svg>
