<?xml version="1.0" standalone="no"?>
<!DOCTYPE svg PUBLIC "-//W3C//DTD SVG 20010904//EN" "http://www.w3.org/TR/2001/REC-SVG-20010904/DTD/svg10.dtd">
<!-- Created using Krita: https://krita.org -->
<svg xmlns="http://www.w3.org/2000/svg" 
    xmlns:xlink="http://www.w3.org/1999/xlink"
    xmlns:krita="http://krita.org/namespaces/svg/krita"
    xmlns:sodipodi="http://sodipodi.sourceforge.net/DTD/sodipodi-0.dtd"
    width="720pt"
    height="720pt"
    viewBox="0 0 720 720">
<defs/>
<path id="shape0" transform="translate(258.200543911458, 289.835357624831)" fill="none" stroke="#000000" stroke-width="9.6" stroke-linecap="square" stroke-linejoin="bevel" d="M72.898 0C39.1048 11.2644 -6.8886 106.317 0.865583 139.66C5.84576 161.075 29.8074 167.407 45.3028 152.486C47.3425 150.522 57.6439 135.773 56.5741 135.773"/><path id="shape1" transform="translate(291.582444271217, 382.644049192026)" fill="none" stroke="#000000" stroke-width="9.6" stroke-linecap="square" stroke-linejoin="bevel" d="M6.22052 13.4261C6.28149 13.609 6.3323 14.1933 6.73874 13.6852C13.5625 5.15557 21.6861 -1.26291 33.2974 0.211551C51.8997 2.57374 68.9044 14.5389 66.8521 35.0618C64.0536 63.0467 49.1985 96.8419 29.7995 117.588C22.7525 125.124 15.8893 132.767 8.68206 140.131C6.95546 141.895 -0.133047 150.128 0.00190121 149.588"/>
</svg>
