<?xml version="1.0" standalone="no"?>
<!DOCTYPE svg PUBLIC "-//W3C//DTD SVG 20010904//EN" "http://www.w3.org/TR/2001/REC-SVG-20010904/DTD/svg10.dtd">
<!-- Created using Krita: https://krita.org -->
<svg xmlns="http://www.w3.org/2000/svg" 
    xmlns:xlink="http://www.w3.org/1999/xlink"
    xmlns:krita="http://krita.org/namespaces/svg/krita"
    xmlns:sodipodi="http://sodipodi.sourceforge.net/DTD/sodipodi-0.dtd"
    width="720pt"
    height="720pt"
    viewBox="0 0 720 720">
<defs/>
<path id="shape0" transform="translate(187.62485136742, 408.012213652914)" fill="none" stroke="#000000" stroke-width="9.6" stroke-linecap="square" stroke-linejoin="bevel" d="M0 50.3484C0 53.6761 2.72422 44.1075 5.0732 41.7503C10.0125 36.7939 14.5141 31.356 20.5302 27.3267C39.5078 14.6165 57.9263 4.87366 81.1478 1.25168C106.356 -2.68021 147.77 11.6721 161.092 34.6773C163.307 38.5029 166.887 46.6062 166.887 46.6062C166.887 46.6062 174.432 37.3953 178.723 33.2894C202.157 10.8645 242.083 -6.07932 275.331 2.0844C347.619 19.8344 299.344 79.8212 286.922 51.1811C282.202 40.2989 329.283 15.5341 318.317 110.264C315.505 134.563 302.389 157.547 290.303 178.362C286.792 184.408 278.677 189.599 273.639 194.451C270.925 197.064 261.912 203.568 265.428 202.217C275.398 198.386 284.942 192.842 295.376 190.846C298.465 190.256 311.065 189.252 307.693 189.736" sodipodi:nodetypes="ccccccccccccccc"/>
</svg>
