<?xml version="1.0" standalone="no"?>
<!DOCTYPE svg PUBLIC "-//W3C//DTD SVG 20010904//EN" "http://www.w3.org/TR/2001/REC-SVG-20010904/DTD/svg10.dtd">
<!-- Created using Krita: https://krita.org -->
<svg xmlns="http://www.w3.org/2000/svg" 
    xmlns:xlink="http://www.w3.org/1999/xlink"
    xmlns:krita="http://krita.org/namespaces/svg/krita"
    xmlns:sodipodi="http://sodipodi.sourceforge.net/DTD/sodipodi-0.dtd"
    width="720pt"
    height="720pt"
    viewBox="0 0 720 720">
<defs/>
<path id="shape0" transform="translate(112.907133215861, 415.963001506458)" fill="none" stroke="#000000" stroke-width="9.6" stroke-linecap="square" stroke-linejoin="bevel" d="M0.0878133 38.933C-1.33907 39.7455 15.0611 31.3059 17.4778 30.054C29.3011 23.9295 42.0636 22.0226 54.6724 18.1285C92.0396 6.58803 135.501 -5.55535 175.189 2.73163C197.275 7.3433 211.739 22.1131 229.288 34.2176C231.667 35.8585 239.807 44.2428 240.638 44.063C306.584 29.8015 342.729 -4.21315 417.187 1.20666C434.463 2.46415 453.293 7.53275 468.391 16.1855C510.338 40.2262 454.141 54.8887 454.141 36.2977C454.141 27.5932 476.119 25.9028 476.119 22.0111" sodipodi:nodetypes="cccccccccc"/><path id="shape1" transform="translate(490.474405071746, 467.654206302021)" fill="none" stroke="#000000" stroke-width="9.6" stroke-linecap="square" stroke-linejoin="bevel" d="M1.22149 19.0019C-3.40718 22.5321 6.48652 15.0083 8.22432 14.009C15.3505 9.911 21.9392 2.26847 29.9618 0" sodipodi:nodetypes="ccc"/><path id="shape2" transform="translate(499.180291319857, 482.770139714625)" fill="none" stroke="#000000" stroke-width="9.6" stroke-linecap="square" stroke-linejoin="bevel" d="M0 20.6674C0 21.1386 27.5832 0 34.0543 0" sodipodi:nodetypes="cc"/>
</svg>
