<?xml version="1.0" standalone="no"?>
<!DOCTYPE svg PUBLIC "-//W3C//DTD SVG 20010904//EN" "http://www.w3.org/TR/2001/REC-SVG-20010904/DTD/svg10.dtd">
<!-- Created using Krita: https://krita.org -->
<svg xmlns="http://www.w3.org/2000/svg" 
    xmlns:xlink="http://www.w3.org/1999/xlink"
    xmlns:krita="http://krita.org/namespaces/svg/krita"
    xmlns:sodipodi="http://sodipodi.sourceforge.net/DTD/sodipodi-0.dtd"
    width="720pt"
    height="720pt"
    viewBox="0 0 720 720">
<defs/>
<path id="shape0" transform="translate(217.064878007003, 413.372684801259)" fill="none" stroke="#000000" stroke-width="9.6" stroke-linecap="square" stroke-linejoin="bevel" d="M8.95177 24.9626C13.2297 24.9626 15.5804 25.8188 19.2253 25.8188C54.567 25.8188 -12.4502 60.0614 2.10278 30.9555C11.2432 12.6747 69.7039 -7.15831 89.4274 2.70342C120.434 18.2069 101.953 53.7541 85.1468 36.9484C65.2565 17.0581 149.462 -4.96639 167.335 0.991168C180.096 5.24509 191.084 10.8211 196.443 21.5381C199.508 27.6694 190.444 42.0851 197.299 42.0851C210.359 42.0851 222.024 20.477 231.544 39.5167C238.778 53.9841 225.551 82.1467 225.551 96.877C225.551 97.0927 224.028 105.438 224.695 105.438C232.284 105.438 245.304 82.2612 250.379 77.1862" sodipodi:nodetypes="cccccccccccc"/>
</svg>
