<?xml version="1.0" standalone="no"?>
<!DOCTYPE svg PUBLIC "-//W3C//DTD SVG 20010904//EN" "http://www.w3.org/TR/2001/REC-SVG-20010904/DTD/svg10.dtd">
<!-- Created using Krita: https://krita.org -->
<svg xmlns="http://www.w3.org/2000/svg" 
    xmlns:xlink="http://www.w3.org/1999/xlink"
    xmlns:krita="http://krita.org/namespaces/svg/krita"
    xmlns:sodipodi="http://sodipodi.sourceforge.net/DTD/sodipodi-0.dtd"
    width="720pt"
    height="720pt"
    viewBox="0 0 720 720">
<defs/>
<path id="shape0" transform="translate(158.835266719763, 263.182721945433)" fill="none" stroke="#000000" stroke-width="9.6" stroke-linecap="square" stroke-linejoin="bevel" d="M5.1191 9.60971C5.1191 7.13898 13.3931 8.39534 15.5063 8.22186C43.9701 5.88506 87.0433 -5.20579 115.011 2.95134C116.323 3.33424 114.101 11.4027 113.803 12.1045C103.889 35.5173 92.9805 58.0943 82.4077 81.173C76.1319 94.872 30.3591 208.267 8.01855 192.265C-33.0832 162.825 96.1644 128.706 116.944 127.497C162.198 124.865 220.568 132.422 260.164 155.097C269.554 160.475 294.986 189.356 304.602 189.356" sodipodi:nodetypes="ccccccccc"/><path id="shape1" transform="translate(499.665205112961, 417.032550535077)" fill="none" stroke="#000000" stroke-width="9.6" stroke-linecap="square" stroke-linejoin="bevel" d="M0 38.6928C0 43.868 5.43359 29.6527 9.41736 26.3492C12.0392 24.1751 35.5024 1.66548 35.5024 0" sodipodi:nodetypes="ccc"/>
</svg>
