<?xml version="1.0" standalone="no"?>
<!DOCTYPE svg PUBLIC "-//W3C//DTD SVG 20010904//EN" "http://www.w3.org/TR/2001/REC-SVG-20010904/DTD/svg10.dtd">
<!-- Created using Krita: https://krita.org -->
<svg xmlns="http://www.w3.org/2000/svg" 
    xmlns:xlink="http://www.w3.org/1999/xlink"
    xmlns:krita="http://krita.org/namespaces/svg/krita"
    xmlns:sodipodi="http://sodipodi.sourceforge.net/DTD/sodipodi-0.dtd"
    width="720pt"
    height="720pt"
    viewBox="0 0 720 720">
<defs/>
<path id="shape0" transform="translate(269.257580261593, 270.727428165959)" fill="none" stroke="#000000" stroke-width="9.6" stroke-linecap="square" stroke-linejoin="bevel" d="M0 2.06501C1.29917 1.56809 0.725699 8.54927 0.725699 9.97077C0.725699 16.0036 -0.955428 30.0426 6.76204 32.7149C34.0957 42.1795 22.56 9.93376 32.1214 4.42269C32.4098 4.25642 37.4619 12.2909 38.161 13.1612C43.0252 19.2161 51.1167 22.7845 58.6879 23.9764C76.0213 26.7052 91.0708 24.8776 105.544 14.6861C109.562 11.8569 113.516 8.71156 117.135 5.39252C118.817 3.85011 121.964 -1.74193 121.964 0.540036C121.964 8.25867 106.551 22.6272 101.919 28.8322C76.2021 63.2796 49.2226 123.399 77.526 164.056C100.709 197.358 153.232 170.351 161.573 140.061C170.844 106.395 136.3 99.182 109.407 102.616C97.7935 104.099 69.3647 118.611 69.5567 118.428" sodipodi:nodetypes="cccccccccccccc"/><path id="shape1" transform="translate(339.520218116087, 407.04616027735)" fill="none" stroke="#000000" stroke-width="9.6" stroke-linecap="square" stroke-linejoin="bevel" d="M45.4244 0.000510353C47.5399 -0.136185 29.3845 27.2282 25.3791 32.4529C14.6928 46.3922 -7.32246 96.8299 2.4343 115.53C12.4254 134.68 53.5902 142.871 58.9485 115.112C61.0192 104.385 20.9615 115.914 32.8635 129.539C36.2507 133.417 48.595 132.7 52.9122 132.867C54.1144 132.913 55.3307 132.867 56.534 132.867C75.0614 132.867 92.7214 128.984 111.115 128.984C112.611 128.984 115.707 128.882 115.707 127.319" sodipodi:nodetypes="ccccccccc"/>
</svg>
