<?xml version="1.0" standalone="no"?>
<!DOCTYPE svg PUBLIC "-//W3C//DTD SVG 20010904//EN" "http://www.w3.org/TR/2001/REC-SVG-20010904/DTD/svg10.dtd">
<!-- Created using Krita: https://krita.org -->
<svg xmlns="http://www.w3.org/2000/svg" 
    xmlns:xlink="http://www.w3.org/1999/xlink"
    xmlns:krita="http://krita.org/namespaces/svg/krita"
    xmlns:sodipodi="http://sodipodi.sourceforge.net/DTD/sodipodi-0.dtd"
    width="720pt"
    height="720pt"
    viewBox="0 0 720 720">
<defs/>
<path id="shape0" transform="translate(269.098080883075, 410.064572837979)" fill="none" stroke="#000000" stroke-width="9.6" stroke-linecap="square" stroke-linejoin="bevel" d="M3.60758 2.73595C5.54211 2.28409 5.01401 6.05674 4.88084 7.64301C4.00748 18.0466 2.62375 28.6093 0.848842 38.8698C0.490735 40.94 0 45.1151 0 45.1151C0 45.1151 7.51152 35.9824 11.4594 31.5835C31.38 9.38695 56.8225 -1.68517 87.2185 0.208064C116.76 2.04805 138.12 15.7178 153.428 39.3159C154.895 41.5765 155.476 43.2339 153.64 44.5203"/><path id="shape1" transform="translate(334.716849857387, 287.08556024809)" fill="none" stroke="#000000" stroke-width="9.6" stroke-linecap="square" stroke-linejoin="bevel" d="M87.385 0.064359C90.3946 -0.638596 85.4495 4.6153 84.4141 6.16102C78.8214 14.5099 71.8466 21.4729 65.3151 29.0607C48.08 49.0828 34.3099 74.3946 24.3585 98.8005C14.6187 122.687 3.69183 148.129 0.590909 173.893C-4.7309 218.109 26.5243 272.39 68.9227 232.778"/>
</svg>
