<?xml version="1.0" standalone="no"?>
<!DOCTYPE svg PUBLIC "-//W3C//DTD SVG 20010904//EN" "http://www.w3.org/TR/2001/REC-SVG-20010904/DTD/svg10.dtd">
<!-- Created using Krita: https://krita.org -->
<svg xmlns="http://www.w3.org/2000/svg" 
    xmlns:xlink="http://www.w3.org/1999/xlink"
    xmlns:krita="http://krita.org/namespaces/svg/krita"
    xmlns:sodipodi="http://sodipodi.sourceforge.net/DTD/sodipodi-0.dtd"
    width="720pt"
    height="720pt"
    viewBox="0 0 720 720">
<defs/>
<path id="shape0" transform="translate(285.789424817359, 318.45453875491)" fill="none" stroke="#000000" stroke-width="9.6" stroke-linecap="square" stroke-linejoin="bevel" d="M0.765514 17.3209C-3.25491 20.8424 9.77164 11.0124 11.8005 9.78683C22.8142 3.13383 35.1769 -0.57086 48.0177 0.0718349C68.2964 1.0868 73.5357 33.1527 76.3125 47.259C90.8108 120.913 2.74615 201.478 2.74615 225.499C2.74615 233.696 14.8483 248.571 20.0059 255.437C21.7181 257.717 25.3888 272.293 27.0796 273.083C27.1968 273.138 34.4663 262.516 35.2851 261.187C42.7342 249.099 52.8056 238.705 59.6186 226.292C60.1592 225.308 62.9433 219.552 63.5798 221.336"/>
</svg>
