<?xml version="1.0" standalone="no"?>
<!DOCTYPE svg PUBLIC "-//W3C//DTD SVG 20010904//EN" "http://www.w3.org/TR/2001/REC-SVG-20010904/DTD/svg10.dtd">
<!-- Created using Krita: https://krita.org -->
<svg xmlns="http://www.w3.org/2000/svg" 
    xmlns:xlink="http://www.w3.org/1999/xlink"
    xmlns:krita="http://krita.org/namespaces/svg/krita"
    xmlns:sodipodi="http://sodipodi.sourceforge.net/DTD/sodipodi-0.dtd"
    width="720pt"
    height="720pt"
    viewBox="0 0 720 720">
<defs/>
<path id="shape0" transform="translate(197.690516122651, 393.436756673438)" fill="none" stroke="#000000" stroke-width="9.6" stroke-linecap="square" stroke-linejoin="bevel" d="M36.2362 1.02521C33.9107 -3.86327 30.2949 10.0785 27.1819 14.5072C19.2843 25.7428 13.4803 37.3789 7.94148 49.7985C2.70205 61.5468 0.133996 67.1282 0.0189516 67.0475C-1.01211 66.3251 40.354 37.5347 44.4417 35.3251C78.0037 17.1831 123.876 -9.25594 157.621 22.8344C190.844 54.4284 175.176 94.803 177.71 135.647C178.567 149.465 175.139 163.544 173.829 177.763C171.951 198.168 161.558 238.86 172.051 257.977C184.377 280.434 217.828 238.015 191.291 233.789C185.214 232.821 176.982 229.456 172.617 235.573"/>
</svg>
