<?xml version="1.0" standalone="no"?>
<!DOCTYPE svg PUBLIC "-//W3C//DTD SVG 20010904//EN" "http://www.w3.org/TR/2001/REC-SVG-20010904/DTD/svg10.dtd">
<!-- Created using Krita: https://krita.org -->
<svg xmlns="http://www.w3.org/2000/svg" 
    xmlns:xlink="http://www.w3.org/1999/xlink"
    xmlns:krita="http://krita.org/namespaces/svg/krita"
    xmlns:sodipodi="http://sodipodi.sourceforge.net/DTD/sodipodi-0.dtd"
    width="720pt"
    height="720pt"
    viewBox="0 0 720 720">
<defs/>
<path id="shape0" transform="translate(235.341466633018, 236.947907435671)" fill="none" stroke="#000000" stroke-width="9.6" stroke-linecap="square" stroke-linejoin="bevel" d="M0 12.1856C0.188632 11.9874 0.341777 11.7479 0.565895 11.5908C2.45377 10.268 8.91899 15.2129 10.4691 16.1509C34.406 30.6367 61.321 46.2568 89.9773 48.6664C128.183 51.879 158.319 37.1688 187.877 15.5561C192.36 12.2786 200.163 1.48564 205.137 0.0914455C209.123 -1.02595 203.968 8.39301 202.307 12.1856C198.167 21.6418 192.706 32.4086 187.028 40.9341C185.9 42.6286 184.482 46.4855 184.482 46.4855C184.482 46.4855 192.634 36.9781 198.346 35.9775C207.271 34.4141 220.851 36.0093 225.792 45.0977C235.541 63.0301 229.521 94.0993 227.773 113.697C227.451 117.307 227.49 116.502 227.49 115.085"/>
</svg>
