<?xml version="1.0" standalone="no"?>
<!DOCTYPE svg PUBLIC "-//W3C//DTD SVG 20010904//EN" "http://www.w3.org/TR/2001/REC-SVG-20010904/DTD/svg10.dtd">
<!-- Created using Krita: https://krita.org -->
<svg xmlns="http://www.w3.org/2000/svg" 
    xmlns:xlink="http://www.w3.org/1999/xlink"
    xmlns:krita="http://krita.org/namespaces/svg/krita"
    xmlns:sodipodi="http://sodipodi.sourceforge.net/DTD/sodipodi-0.dtd"
    width="720pt"
    height="720pt"
    viewBox="0 0 720 720">
<defs/>
<path id="shape0" transform="translate(225.986076680995, 403.481040396622)" fill="none" stroke="#000000" stroke-width="9.6" stroke-linecap="square" stroke-linejoin="bevel" d="M38.216 3.86817C26.741 15.9293 13.8227 27.9831 5.67707 42.7282C5.00102 43.9519 0.440633 54.8223 0.0181271 54.8223C-0.352201 54.8223 5.05797 51.2908 6.52592 50.2622C21.6639 39.6548 37.4019 30.3711 53.4952 21.3155C79.519 6.67202 153.031 -14.7495 176.011 14.7728C198.209 43.2885 189.001 139.594 180.539 176.161C178.929 183.118 170.48 223.699 171.484 234.252C171.941 239.056 170.085 253.42 171.201 248.726"/><path id="shape1" transform="translate(435.421135543808, 587.89460641607)" fill="none" stroke="#000000" stroke-width="9.6" stroke-linecap="square" stroke-linejoin="bevel" d="M42.9721 2.6517C42.9721 -3.79756 22.1575 3.38705 19.4875 4.63435C-18.9539 22.592 6.11742 65.7502 37.5961 43.6926"/>
</svg>
