<?xml version="1.0" standalone="no"?>
<!DOCTYPE svg PUBLIC "-//W3C//DTD SVG 20010904//EN" "http://www.w3.org/TR/2001/REC-SVG-20010904/DTD/svg10.dtd">
<!-- Created using Krita: https://krita.org -->
<svg xmlns="http://www.w3.org/2000/svg" 
    xmlns:xlink="http://www.w3.org/1999/xlink"
    xmlns:krita="http://krita.org/namespaces/svg/krita"
    xmlns:sodipodi="http://sodipodi.sourceforge.net/DTD/sodipodi-0.dtd"
    width="720pt"
    height="720pt"
    viewBox="0 0 720 720">
<defs/>
<path id="shape0" transform="translate(279.802956799081, 367.926414610374)" fill="none" stroke="#000000" stroke-width="9.6" stroke-linecap="square" stroke-linejoin="bevel" d="M0.959123 1.28152C0.959123 -5.07715 1.86999 13.9666 2.23239 20.315C2.97472 33.319 2.42373 45.9691 2.02018 58.9767C1.01567 91.3546 14.3137 129.661 5.83996 160.092C2.22896 173.06 2.05567 186.621 0.534702 199.943C0.296906 202.026 -0.539304 219.822 0.534702 219.572"/><path id="shape1" transform="translate(308.377841865995, 365.161747134707)" fill="none" stroke="#000000" stroke-width="9.6" stroke-linecap="square" stroke-linejoin="bevel" d="M4.42802 0.328712C4.42802 -0.84005 4.04029 1.45576 4.0036 1.8157C3.32209 8.50138 2.51813 15.4909 2.51813 22.1875C2.51813 33.6025 1.40107 44.7321 1.03266 56.0908C-0.249032 95.6071 6.49527 131.223 3.15476 169.845C1.87908 184.595 5.80607 202.911 1.45708 217.132C1.09869 218.304 1.09891 224.762 0.183814 224.121C-1.43559 222.986 8.15205 206.494 9.09666 204.641C30.8416 161.978 73.8981 117.736 85.7046 71.4068C90.451 52.7823 97.6538 38.4069 105.865 21.1466C107.936 16.7914 117.922 0.221065 116.475 2.85659"/>
</svg>
