<?xml version="1.0" standalone="no"?>
<!DOCTYPE svg PUBLIC "-//W3C//DTD SVG 20010904//EN" "http://www.w3.org/TR/2001/REC-SVG-20010904/DTD/svg10.dtd">
<!-- Created using Krita: https://krita.org -->
<svg xmlns="http://www.w3.org/2000/svg" 
    xmlns:xlink="http://www.w3.org/1999/xlink"
    xmlns:krita="http://krita.org/namespaces/svg/krita"
    xmlns:sodipodi="http://sodipodi.sourceforge.net/DTD/sodipodi-0.dtd"
    width="720pt"
    height="720pt"
    viewBox="0 0 720 720">
<defs/>
<path id="shape0" transform="translate(335.020218302372, 381.644884285835)" fill="none" stroke="#000000" stroke-width="9.6" stroke-linecap="square" stroke-linejoin="bevel" d="M1.0679 0C-1.37452 0 0.936507 0.512778 2.40867 0.512778C4.13939 0.512778 5.87011 0.512778 7.60083 0.512778C8.88462 0.512778 10.1684 0.512778 11.4522 0.512778C13.0157 0.512778 14.5792 0.512778 16.1427 0.512778C18.9192 0.512778 67.2804 2.16084 67.8933 4.49957C69.9361 12.2944 29.6033 48.4047 20.8309 67.1251C20.1581 68.5609 17.8723 71.803 20.4958 70.5991" sodipodi:nodetypes="cccccccc"/><path id="shape1" transform="translate(282.414737695752, 335.001580876375)" fill="none" stroke="#000000" stroke-width="9.6" stroke-linecap="square" stroke-linejoin="bevel" d="M72.0957 145.661C72.0957 147.456 92.6387 144.545 94.7067 143.989C147.483 129.789 220.743 42.1413 143.443 5.62105C122.472 -4.2866 91.0107 0.250769 70.2532 8.83535C-57.1868 61.54 13.6447 190.472 87.5056 149.905" sodipodi:nodetypes="ccccc"/>
</svg>
