<?xml version="1.0" standalone="no"?>
<!DOCTYPE svg PUBLIC "-//W3C//DTD SVG 20010904//EN" "http://www.w3.org/TR/2001/REC-SVG-20010904/DTD/svg10.dtd">
<!-- Created using Krita: https://krita.org -->
<svg xmlns="http://www.w3.org/2000/svg" 
    xmlns:xlink="http://www.w3.org/1999/xlink"
    xmlns:krita="http://krita.org/namespaces/svg/krita"
    xmlns:sodipodi="http://sodipodi.sourceforge.net/DTD/sodipodi-0.dtd"
    width="720pt"
    height="720pt"
    viewBox="0 0 720 720">
<defs/>
<path id="shape0" transform="translate(213.961607448797, 216.02048164145)" fill="none" stroke="#000000" stroke-width="9.6" stroke-linecap="square" stroke-linejoin="bevel" d="M80.91 0.131085C91.8975 -1.43856 71.7296 11.5715 69.2687 13.3488C50.7418 26.7293 36.6092 46.3411 26.5841 66.7046C1.71124 117.227 -24.7614 196.5 43.3184 227.136C90.3399 248.295 153.715 189.999 116.319 153.893C36.0459 76.3879 -26.425 197.553 27.0691 179.722C29.1483 179.029 31.1339 175.283 32.6472 173.416C55.637 145.062 3.30275 153.591 6.69691 156.561"/><path id="shape1" transform="translate(375.844037211817, 413.897055421361)" fill="none" stroke="#000000" stroke-width="9.6" stroke-linecap="square" stroke-linejoin="bevel" d="M1.00142 13.8587C2.94483 13.2109 3.44923 20.2433 4.39678 21.8621C10.8237 32.8413 39.0709 24.6163 36.1677 10.4633C32.0466 -9.62722 -4.76024 3.32024 0.516363 15.1926"/>
</svg>
