<?xml version="1.0" standalone="no"?>
<!DOCTYPE svg PUBLIC "-//W3C//DTD SVG 20010904//EN" "http://www.w3.org/TR/2001/REC-SVG-20010904/DTD/svg10.dtd">
<!-- Created using Krita: https://krita.org -->
<svg xmlns="http://www.w3.org/2000/svg" 
    xmlns:xlink="http://www.w3.org/1999/xlink"
    xmlns:krita="http://krita.org/namespaces/svg/krita"
    xmlns:sodipodi="http://sodipodi.sourceforge.net/DTD/sodipodi-0.dtd"
    width="720pt"
    height="720pt"
    viewBox="0 0 720 720">
<defs/>
<path id="shape0" transform="translate(316.818119910157, 334.783125231725)" fill="none" stroke="#000000" stroke-width="9.6" stroke-linecap="square" stroke-linejoin="bevel" d="M51.8219 25.2169C54.9148 6.97688 31.2027 -15.2725 10.7642 14.6726C-9.28815 44.0519 15.4311 91.1074 0.0121864 123.52C-0.246516 124.064 3.69818 115.086 3.82187 114.497C6.83266 100.151 10.124 91.7423 18.4038 79.7036C32.1339 59.7403 73.2584 54.7202 89.7065 73.1609C113.532 99.8726 40.9164 244.997 19.8185 268.65"/><path id="shape1" transform="translate(346.108713143044, 515.830221466363)" fill="none" stroke="#000000" stroke-width="9.6" stroke-linecap="square" stroke-linejoin="bevel" d="M0.148119 0.564879C-0.943104 -1.72903 4.27427 3.64668 6.65591 4.53018C28.7896 12.741 55.6137 4.93025 77.3927 14.6417C78.7599 15.2513 78.1117 15.815 77.3927 16.8226"/>
</svg>
