<?xml version="1.0" standalone="no"?>
<!DOCTYPE svg PUBLIC "-//W3C//DTD SVG 20010904//EN" "http://www.w3.org/TR/2001/REC-SVG-20010904/DTD/svg10.dtd">
<!-- Created using Krita: https://krita.org -->
<svg xmlns="http://www.w3.org/2000/svg" 
    xmlns:xlink="http://www.w3.org/1999/xlink"
    xmlns:krita="http://krita.org/namespaces/svg/krita"
    xmlns:sodipodi="http://sodipodi.sourceforge.net/DTD/sodipodi-0.dtd"
    width="720pt"
    height="720pt"
    viewBox="0 0 720 720">
<defs/>
<path id="shape0" transform="translate(218.890532678714, 179.113667724935)" fill="none" stroke="#000000" stroke-width="9.6" stroke-linecap="square" stroke-linejoin="bevel" d="M21.3527 184.86C20.2846 184.112 22.0667 195.498 24.6479 197.945C35.6865 208.41 51.2082 204.903 60.236 194.096C61.3879 192.718 65.9605 185.259 63.9705 183.167C57.0378 175.88 48.0128 176.86 38.9271 178.703C-29.4938 192.582 0.294821 300.355 66.387 269.831C132.976 239.078 186.048 164.218 209.618 96.5031C214.85 81.4719 256.971 -9.16595 212.913 0.757035C192.635 5.32436 183.206 28.206 172.053 42.9346C136.027 90.5092 123.459 154.237 141.298 212.568C148.855 237.28 160.777 267.309 189.188 273.68C204.826 277.186 221.432 267.885 228.73 253.822C229.047 253.212 230.312 252.119 228.95 252.437"/>
</svg>
