<?xml version="1.0" standalone="no"?>
<!DOCTYPE svg PUBLIC "-//W3C//DTD SVG 20010904//EN" "http://www.w3.org/TR/2001/REC-SVG-20010904/DTD/svg10.dtd">
<!-- Created using Krita: https://krita.org -->
<svg xmlns="http://www.w3.org/2000/svg" 
    xmlns:xlink="http://www.w3.org/1999/xlink"
    xmlns:krita="http://krita.org/namespaces/svg/krita"
    xmlns:sodipodi="http://sodipodi.sourceforge.net/DTD/sodipodi-0.dtd"
    width="720pt"
    height="720pt"
    viewBox="0 0 720 720">
<defs/>
<path id="shape0" transform="translate(194.692463368304, 345.005181992927)" fill="none" stroke="#000000" stroke-width="9.6" stroke-linecap="square" stroke-linejoin="bevel" d="M271.868 5.39482C261.092 3.81253 240.997 2.70606 238.268 2.51482C214.899 0.877369 204.102 1.69207 180.708 0.287012C138.079 -2.27331 -5.90295 11.4594 0.187537 75.4748C5.6529 132.92 157 126.994 195.987 120.878C202.401 119.871 268.422 113.664 268.422 111.91C268.422 110.611 248.183 115.241 245.948 115.795C231.844 119.32 226.05 114.751 220.988 143.635C230.303 161.477 257.886 157.424 267.29 153.546"/><path id="shape1" transform="translate(466.226526241624, 254.797512537919)" fill="none" stroke="#000000" stroke-width="9.6" stroke-linecap="square" stroke-linejoin="bevel" d="M0 17.9296C0.657507 9.11874 25.5373 -8.53702 35.0855 4.84409C44.4424 17.9571 40.4131 33.517 39.6126 48.6607C39.3713 53.2258 40.9987 59.5221 39.8956 66.9011"/>
</svg>
