<?xml version="1.0" standalone="no"?>
<!DOCTYPE svg PUBLIC "-//W3C//DTD SVG 20010904//EN" "http://www.w3.org/TR/2001/REC-SVG-20010904/DTD/svg10.dtd">
<!-- Created using Krita: https://krita.org -->
<svg xmlns="http://www.w3.org/2000/svg" 
    xmlns:xlink="http://www.w3.org/1999/xlink"
    xmlns:krita="http://krita.org/namespaces/svg/krita"
    xmlns:sodipodi="http://sodipodi.sourceforge.net/DTD/sodipodi-0.dtd"
    width="720pt"
    height="720pt"
    viewBox="0 0 720 720">
<defs/>
<path id="shape0" transform="translate(208.176127465161, 387.885517992719)" fill="none" stroke="#000000" stroke-width="9.6" stroke-linecap="square" stroke-linejoin="bevel" d="M0.28534 0.628491C-0.106003 -0.194168 -0.240392 -0.224687 0.851235 0.628491C8.97687 6.97921 16.8694 13.3943 24.0529 20.8515C38.2478 35.5872 52.0373 51.4547 65.9291 66.056"/><path id="shape1" transform="translate(201.356276287215, 391.443807738741)" fill="none" stroke="#000000" stroke-width="9.6" stroke-linecap="square" stroke-linejoin="bevel" d="M0.0315072 62.696C-0.894128 63.6689 18.7587 46.5168 34.834 35.7319C60.1853 18.7238 85.5323 3.76 116.323 0.440711C141.783 -2.30395 174.189 7.94985 192.436 26.2152C202.134 35.9238 205.76 48.4569 213.091 58.7307C213.665 59.5352 216.12 62.3461 214.223 61.9029"/><path id="shape2" transform="translate(405.958724679005, 287.217793092154)" fill="none" stroke="#000000" stroke-width="9.6" stroke-linecap="square" stroke-linejoin="bevel" d="M0 22.1884C4.13086 17.8465 8.28915 14.6843 12.7326 10.8873C64.1696 -33.0672 36.8626 69.5714 43.2909 80.0818"/>
</svg>
