<?xml version="1.0" standalone="no"?>
<!DOCTYPE svg PUBLIC "-//W3C//DTD SVG 20010904//EN" "http://www.w3.org/TR/2001/REC-SVG-20010904/DTD/svg10.dtd">
<!-- Created using Krita: https://krita.org -->
<svg xmlns="http://www.w3.org/2000/svg" 
    xmlns:xlink="http://www.w3.org/1999/xlink"
    xmlns:krita="http://krita.org/namespaces/svg/krita"
    xmlns:sodipodi="http://sodipodi.sourceforge.net/DTD/sodipodi-0.dtd"
    width="720pt"
    height="720pt"
    viewBox="0 0 720 720">
<defs/>
<path id="shape0" transform="translate(220.014054990651, 394.737446903188)" fill="none" stroke="#000000" stroke-width="9.6" stroke-linecap="square" stroke-linejoin="bevel" d="M55.223 16.3788C55.223 15.3214 55.223 18.4936 55.223 19.551C55.223 37.2919 62.4849 55.0888 62.8626 73.0827C63.3179 94.7801 65.685 241.237 11.6491 219.601C0.317943 215.064 2.36114 202.766 1.18004 192.835C-5.7378 134.666 17.7381 38.4047 72.1998 4.48289C104.985 -15.9379 115.643 38.8594 105.871 59.4024"/><path id="shape1" transform="translate(356.159126999653, 393.110945126579)" fill="none" stroke="#000000" stroke-width="9.6" stroke-linecap="square" stroke-linejoin="bevel" d="M53.7609 3.92847C60.9702 -3.64909 6.64471 -0.704191 3.11328 16.6174C-0.707142 35.3566 72.2202 17.0698 57.7221 47.5468C48.8472 66.2032 24.0269 57.0476 9.05518 56.2705C8.59242 56.2465 -4.59488 55.7813 1.69855 53.8913"/>
</svg>
