<?xml version="1.0" standalone="no"?>
<!DOCTYPE svg PUBLIC "-//W3C//DTD SVG 20010904//EN" "http://www.w3.org/TR/2001/REC-SVG-20010904/DTD/svg10.dtd">
<!-- Created using Krita: https://krita.org -->
<svg xmlns="http://www.w3.org/2000/svg" 
    xmlns:xlink="http://www.w3.org/1999/xlink"
    xmlns:krita="http://krita.org/namespaces/svg/krita"
    xmlns:sodipodi="http://sodipodi.sourceforge.net/DTD/sodipodi-0.dtd"
    width="720pt"
    height="720pt"
    viewBox="0 0 720 720">
<defs/>
<path id="shape0" transform="translate(213.260771334704, 311.860028271927)" fill="none" stroke="#000000" stroke-width="9.6" stroke-linecap="square" stroke-linejoin="bevel" d="M88.2904 2.89931C88.9929 3.63774 88.8563 3.22044 88.8563 4.0889C88.8563 34.8162 57.9333 252.835 11.3287 209.293C-30.2093 170.485 53.4618 38.5137 85.7439 6.46808C97.5219 -5.22374 145.514 2.86412 162.988 1.11492C165.626 0.850922 173.828 -1.64653 172.043 2.10624"/><path id="shape1" transform="translate(337.314596568618, 275.304547541003)" fill="none" stroke="#000000" stroke-width="9.6" stroke-linecap="square" stroke-linejoin="bevel" d="M0.170867 7.13755C-1.2877 10.2037 6.97605 7.45044 10.357 7.13755C37.7965 4.59809 68.2902 0 95.8071 0"/><path id="shape2" transform="translate(386.71830420284, 244.969963186707)" fill="none" stroke="#000000" stroke-width="9.6" stroke-linecap="square" stroke-linejoin="bevel" d="M0 6.34449C31.7801 2.63303 66.878 0 99.0316 0"/>
</svg>
