<?xml version="1.0" standalone="no"?>
<!DOCTYPE svg PUBLIC "-//W3C//DTD SVG 20010904//EN" "http://www.w3.org/TR/2001/REC-SVG-20010904/DTD/svg10.dtd">
<!-- Created using Krita: https://krita.org -->
<svg xmlns="http://www.w3.org/2000/svg" 
    xmlns:xlink="http://www.w3.org/1999/xlink"
    xmlns:krita="http://krita.org/namespaces/svg/krita"
    xmlns:sodipodi="http://sodipodi.sourceforge.net/DTD/sodipodi-0.dtd"
    width="720pt"
    height="720pt"
    viewBox="0 0 720 720">
<defs/>
<path id="shape0" transform="translate(180.745222657247, 273.409128671038)" fill="none" stroke="#000000" stroke-width="9.6" stroke-linecap="square" stroke-linejoin="bevel" d="M29.995 3.92666C33.5243 3.92666 6.58005 39.8134 0.0732873 44.3728C-0.334252 44.6583 1.06859 44.3099 1.55876 44.2241C14.206 42.0085 27.0118 39.7223 39.5444 36.9378C63.5833 31.5969 91.78 26.9504 116.365 29.3542C163.98 34.0097 107.027 73.4719 107.027 44.5215C107.027 40.4418 106.897 36.921 108.937 33.2204C111.489 28.5928 115.037 24.1044 119.123 20.7296C132.345 9.8108 147.83 6.28152 164.324 2.73707C236.935 -12.8659 264.225 43.3319 272.339 43.3319C276.647 43.3319 293.045 22.0911 297.805 17.7557C299.639 16.085 300.079 16.2546 298.229 15.8226"/><path id="shape1" transform="translate(340.492750755656, 231.387819036481)" fill="none" stroke="#000000" stroke-width="9.6" stroke-linecap="square" stroke-linejoin="bevel" d="M87.9754 0C72.2101 3.68234 54.8747 38.9303 45.1089 50.4089C6.57875 95.697 -30.1048 172.056 38.106 209.963C54.8735 219.281 95.6042 223.084 92.6441 191.97C89.6854 160.872 31.6566 227.459 75.455 210.409C99.2333 201.152 117.153 164.635 132.115 145.874C139.302 136.862 146.212 127.713 153.548 118.81C155.27 116.721 164.66 107.78 162.461 108.55"/>
</svg>
