<?xml version="1.0" standalone="no"?>
<!DOCTYPE svg PUBLIC "-//W3C//DTD SVG 20010904//EN" "http://www.w3.org/TR/2001/REC-SVG-20010904/DTD/svg10.dtd">
<!-- Created using Krita: https://krita.org -->
<svg xmlns="http://www.w3.org/2000/svg" 
    xmlns:xlink="http://www.w3.org/1999/xlink"
    xmlns:krita="http://krita.org/namespaces/svg/krita"
    xmlns:sodipodi="http://sodipodi.sourceforge.net/DTD/sodipodi-0.dtd"
    width="720pt"
    height="720pt"
    viewBox="0 0 720 720">
<defs/>
<path id="shape0" transform="translate(252.017998177252, 355.805966830351)" fill="none" stroke="#000000" stroke-width="9.6" stroke-linecap="square" stroke-linejoin="bevel" d="M0.570396 17.333C-4.31293 17.333 23.5514 -7.31718 31.1453 2.17514C50.0137 25.7606 20.4257 62.9948 34.3842 87.4221C42.3662 101.391 60.2259 80.2818 51.0967 70.4504C25.7319 43.1345 36.31 186.813 38.1412 193.527C39.3352 197.905 35.6823 205.9 40.0846 207.001C42.5838 207.626 49.3272 186.886 49.9307 184.977C58.6975 157.245 70.5687 127.389 88.0198 103.746C96.5958 92.1269 107.017 82.0938 114.449 69.8027C116.571 66.2929 126.333 53.9703 124.425 56.0699"/>
</svg>
