<?xml version="1.0" standalone="no"?>
<!DOCTYPE svg PUBLIC "-//W3C//DTD SVG 20010904//EN" "http://www.w3.org/TR/2001/REC-SVG-20010904/DTD/svg10.dtd">
<!-- Created using Krita: https://krita.org -->
<svg xmlns="http://www.w3.org/2000/svg" 
    xmlns:xlink="http://www.w3.org/1999/xlink"
    xmlns:krita="http://krita.org/namespaces/svg/krita"
    xmlns:sodipodi="http://sodipodi.sourceforge.net/DTD/sodipodi-0.dtd"
    width="720pt"
    height="720pt"
    viewBox="0 0 720 720">
<defs/>
<path id="shape0" transform="translate(229.354784092591, 356.927316809438)" fill="none" stroke="#000000" stroke-width="9.6" stroke-linecap="square" stroke-linejoin="bevel" d="M9.1774 24.92C9.83131 25.2255 18.967 10.8406 21.91 8.41444C31.853 0.217753 47.2986 -1.34675 59.4713 0.979497C137.051 15.8052 91.8007 112.84 27.4275 100.31C-1.65845 94.649 -9.23133 28.4142 12.5728 18.2286"/><path id="shape1" transform="translate(290.67104074288, 360.734127303062)" fill="none" stroke="#000000" stroke-width="9.6" stroke-linecap="square" stroke-linejoin="bevel" d="M2.82367 27.3586C-7.84825 39.5103 15.155 18.2821 15.3441 18.1392C33.3208 4.55196 67.6736 -12.8191 82.4026 14.2731C96.0269 39.3333 70.748 96.7662 59.6961 119.403C57.8412 123.202 41.8353 159.007 41.0216 156.727"/><path id="shape2" transform="translate(386.655122864097, 273.03887276206)" fill="none" stroke="#000000" stroke-width="9.6" stroke-linecap="square" stroke-linejoin="bevel" d="M0 13.0464C5.38736 15.563 19.1997 -12.4569 28.224 6.801C34.3041 19.7759 32.256 40.2088 32.256 54.6821"/>
</svg>
