<?xml version="1.0" standalone="no"?>
<!DOCTYPE svg PUBLIC "-//W3C//DTD SVG 20010904//EN" "http://www.w3.org/TR/2001/REC-SVG-20010904/DTD/svg10.dtd">
<!-- Created using Krita: https://krita.org -->
<svg xmlns="http://www.w3.org/2000/svg" 
    xmlns:xlink="http://www.w3.org/1999/xlink"
    xmlns:krita="http://krita.org/namespaces/svg/krita"
    xmlns:sodipodi="http://sodipodi.sourceforge.net/DTD/sodipodi-0.dtd"
    width="720pt"
    height="720pt"
    viewBox="0 0 720 720">
<defs/>
<path id="shape0" transform="translate(182.94061500465, 285.408771678202)" fill="none" stroke="#000000" stroke-width="9.6" stroke-linecap="square" stroke-linejoin="bevel" d="M0 6.05342C0 13.7078 15.061 20.5272 19.9478 25.2356C48.6242 52.8648 91.237 52.1248 120.748 26.2765C127.506 20.3573 133.437 8.01674 140.059 3.37684C140.313 3.19854 140.483 8.39911 140.483 9.32479C140.483 14.4589 140.663 20.4894 145.152 23.8973C168.261 41.4392 173.541 16.5286 175.498 1.44375C175.935 -1.92483 182.289 1.64404 185.684 1.74115C198.324 2.10265 210.84 2.41067 223.458 2.93074C225.775 3.02626 239.755 2.55954 239.373 3.22814"/>
</svg>
